<?xml version="1.0" encoding="UTF-8"?>
<svg width="102px" height="95px" viewBox="0 0 102 95" version="1.1" xmlns="http://www.w3.org/2000/svg" xmlns:xlink="http://www.w3.org/1999/xlink">
    <!-- Generator: Sketch 50.2 (55047) - http://www.bohemiancoding.com/sketch -->
    <title>message</title>
    <desc>Created with Sketch.</desc>
    <g id="CRM_телемаркетолог" stroke="none" stroke-width="1" fill="none" fill-rule="evenodd">
        <g id="ТМ_2" transform="translate(-823.000000, -28.000000)">
            <rect id="Rectangle" fill="url(#linearGradient-1)" x="230" y="0" width="1104" height="1026"></rect>
            <g id="Меню_верхнее" transform="translate(230.000000, 30.000000)"></g>
            <g id="message" transform="translate(834.000000, 76.000000) scale(-1, 1) translate(-834.000000, -76.000000) translate(743.000000, 28.000000)" fill="#03A9F4" fill-rule="nonzero">
                <g id="Shape">
                    <path d="M87.4484648,0.0956012658 L14.5515352,0.0956012658 C6.52760156,0.0956012658 0,6.662827 0,14.7350211 L0,64.2314241 C0,72.3036181 6.52760156,78.8708439 14.5515352,78.8708439 L20.2617422,78.8708439 L20.3735039,91.7946519 C20.3834648,92.9857595 21.0633984,94.0682384 22.1284219,94.5889346 C22.5613242,94.8005802 23.0272969,94.9045992 23.4910781,94.9045992 C24.1682227,94.9045992 24.8403867,94.6829325 25.3966055,94.2508228 L45.2039297,78.8708439 L87.4484648,78.8708439 C95.4723984,78.8708439 102,72.3036181 102,64.2314241 L102,14.7350211 C102,6.662827 95.4723984,0.0956012658 87.4484648,0.0956012658 Z M95.7636563,64.2316245 C95.7636563,68.8443354 92.0334844,72.5970359 87.4484648,72.5970359 L44.1406992,72.5970359 C43.4514023,72.5970359 42.7814297,72.8269198 42.2355703,73.2506118 L26.5548633,85.4262447 L26.470793,75.7067827 C26.4560508,73.9849578 25.0643086,72.5970359 23.3528203,72.5970359 L14.5515352,72.5970359 C9.96651563,72.5970359 6.23634375,68.8443354 6.23634375,64.2316245 L6.23634375,14.7350211 C6.23634375,10.1223101 9.96651563,6.3696097 14.5515352,6.3696097 L87.4486641,6.3696097 C92.0336836,6.3696097 95.7638555,10.1223101 95.7638555,14.7350211 L95.7638555,64.2316245 L95.7636563,64.2316245 Z"></path>
                </g>
            </g>
        </g>
    </g>
</svg>